<?xml version="1.0" encoding="UTF-8" standalone="no"?>
<!DOCTYPE svg PUBLIC "-//W3C//DTD SVG 1.1//EN" "http://www.w3.org/Graphics/SVG/1.1/DTD/svg11.dtd">
<svg width="100%" height="100%" viewBox="0 0 151 151" version="1.1" xmlns="http://www.w3.org/2000/svg" xmlns:xlink="http://www.w3.org/1999/xlink" xml:space="preserve" xmlns:serif="http://www.serif.com/" style="fill-rule:evenodd;clip-rule:evenodd;stroke-linejoin:round;stroke-miterlimit:1.41421;">
    <g transform="matrix(1,0,0,1,-124.6,-124.6)">
        <path d="M200,210.56L212.43,200.49L238.49,228.92L161.49,228.92L187.55,200.49L200,210.56M161.44,219.48L161.44,179.31L182.57,196.44L161.44,219.44M238.57,219.44L217.43,196.44L238.57,179.31L238.57,219.48M200,202.29L161.48,171.08L238.48,171.08L200,202.29M200,124.6C158.637,124.6 124.6,158.637 124.6,200C124.6,241.363 158.637,275.4 200,275.4C241.363,275.4 275.4,241.363 275.4,200C275.4,158.637 241.363,124.6 200,124.6" style="fill:rgb(244,145,183);fill-rule:nonzero;"/>
    </g>
</svg>
