<?xml version="1.0" encoding="UTF-8" standalone="no"?>
<!DOCTYPE svg PUBLIC "-//W3C//DTD SVG 1.1//EN" "http://www.w3.org/Graphics/SVG/1.1/DTD/svg11.dtd">
<svg width="100%" height="100%" viewBox="0 0 151 151" version="1.1" xmlns="http://www.w3.org/2000/svg" xmlns:xlink="http://www.w3.org/1999/xlink" xml:space="preserve" xmlns:serif="http://www.serif.com/" style="fill-rule:evenodd;clip-rule:evenodd;stroke-linejoin:round;stroke-miterlimit:1.41421;">
    <g transform="matrix(1,0,0,1,-124.6,-124.6)">
        <path d="M174.87,200L174.87,187.43L187.43,187.43L187.43,172.93C187.43,161.82 193.28,156.02 206.43,156.02L218.81,156.02L218.81,174.87L210.33,174.87C206.95,174.87 206.24,176.26 206.24,179.75L206.24,187.43L218.81,187.43L217.54,200L206.28,200L206.28,244L187.43,244L187.43,200L174.87,200M200,124.6C158.637,124.6 124.6,158.637 124.6,200C124.6,241.363 158.637,275.4 200,275.4C241.363,275.4 275.4,241.363 275.4,200C275.4,158.637 241.363,124.6 200,124.6" style="fill:rgb(244,145,183);fill-rule:nonzero;"/>
    </g>
</svg>
