<?xml version="1.0" encoding="UTF-8" standalone="no"?>
<!DOCTYPE svg PUBLIC "-//W3C//DTD SVG 1.1//EN" "http://www.w3.org/Graphics/SVG/1.1/DTD/svg11.dtd">
<svg width="100%" height="100%" viewBox="0 0 326 150" version="1.1" xmlns="http://www.w3.org/2000/svg" xmlns:xlink="http://www.w3.org/1999/xlink" xml:space="preserve" xmlns:serif="http://www.serif.com/" style="fill-rule:evenodd;clip-rule:evenodd;stroke-linejoin:round;stroke-miterlimit:1.41421;">
    <g transform="matrix(1,0,0,1,-40.9884,-125.25)">
        <path d="M68.28,221.67L68.28,222.17L60.85,222.17C60.462,221.206 60.19,220.199 60.04,219.17C59.028,220.25 57.816,221.123 56.47,221.74C54.994,222.419 53.385,222.761 51.76,222.74C49.839,222.772 47.937,222.351 46.21,221.51C44.643,220.755 43.314,219.581 42.37,218.12C41.452,216.671 40.976,214.985 41,213.27C40.844,210.219 42.265,207.293 44.76,205.53C47.26,203.73 50.813,202.833 55.42,202.84L59.81,202.84L59.81,200.79C59.827,200.622 59.836,200.453 59.836,200.285C59.836,197.608 57.633,195.405 54.956,195.405C54.76,195.405 54.565,195.416 54.37,195.44C53.394,195.423 52.426,195.614 51.53,196C50.772,196.327 50.116,196.852 49.63,197.52C49.186,198.152 48.951,198.908 48.96,199.68L41.67,199.68C41.68,197.954 42.249,196.277 43.29,194.9C44.493,193.321 46.085,192.08 47.91,191.3C50.072,190.359 52.412,189.895 54.77,189.94C56.966,189.896 59.147,190.315 61.17,191.17C62.957,191.927 64.471,193.211 65.51,194.85C66.602,196.656 67.148,198.741 67.08,200.85L67.08,214.79C66.99,217.142 67.399,219.487 68.28,221.67ZM57.22,215.85C58.301,215.231 59.193,214.328 59.8,213.24L59.8,207.34L56,207.34C53.986,207.205 51.977,207.683 50.24,208.71C48.946,209.558 48.186,211.024 48.24,212.57C48.196,213.751 48.663,214.896 49.52,215.71C50.512,216.574 51.807,217.013 53.12,216.93C54.561,216.965 55.983,216.59 57.22,215.85Z" style="fill:rgb(201,55,148);fill-rule:nonzero;"/>
    </g>
    <g transform="matrix(1,0,0,1,-40.9884,-125.25)">
        <rect x="73.07" y="177.25" width="7.28" height="44.92" style="fill:rgb(201,55,148);fill-rule:nonzero;"/>
    </g>
    <g transform="matrix(1,0,0,1,-40.9884,-125.25)">
        <rect x="86.65" y="177.25" width="7.28" height="44.92" style="fill:rgb(201,55,148);fill-rule:nonzero;"/>
    </g>
    <g transform="matrix(1,0,0,1,-40.9884,-125.25)">
        <path d="M132.88,211.64C132.83,213.644 132.19,215.588 131.04,217.23C129.844,218.934 128.238,220.31 126.37,221.23C124.384,222.235 122.185,222.746 119.96,222.72C117.146,222.818 114.363,222.088 111.96,220.62C109.805,219.24 108.109,217.248 107.09,214.9C105.99,212.347 105.441,209.59 105.48,206.81L105.48,205.81C105.438,203.029 105.991,200.271 107.1,197.72C108.133,195.372 109.838,193.381 112,192C116.469,189.419 121.934,189.194 126.6,191.4C128.485,192.353 130.063,193.819 131.15,195.63C132.259,197.516 132.852,199.662 132.87,201.85L126,201.85C125.961,200.772 125.673,199.718 125.16,198.77C124.665,197.856 123.933,197.092 123.04,196.56C122.071,195.993 120.962,195.709 119.84,195.74C117.25,195.74 115.42,196.69 114.37,198.58C113.24,200.814 112.696,203.298 112.79,205.8L112.79,206.8C112.79,213.507 115.15,216.86 119.87,216.86C120.908,216.868 121.934,216.639 122.87,216.19C123.75,215.767 124.505,215.123 125.06,214.32C125.602,213.512 125.913,212.572 125.96,211.6L132.83,211.6L132.88,211.64Z" style="fill:rgb(236,63,148);fill-rule:nonzero;"/>
    </g>
    <g transform="matrix(1,0,0,1,-40.9884,-125.25)">
        <rect x="136.85" y="177.25" width="7.28" height="44.92" style="fill:rgb(236,63,148);fill-rule:nonzero;"/>
    </g>
    <g transform="matrix(1,0,0,1,-40.9884,-125.25)">
        <path d="M176.72,208.63L156.1,208.63C156.207,210.134 156.637,211.597 157.36,212.92C158.032,214.133 159.016,215.144 160.21,215.85C161.49,216.571 162.941,216.934 164.41,216.9C167.518,216.974 170.471,215.514 172.3,213L176.19,216.77C174.949,218.544 173.304,219.998 171.39,221.01C169.101,222.196 166.547,222.778 163.97,222.7C161.15,222.769 158.362,222.078 155.9,220.7C153.648,219.411 151.809,217.506 150.6,215.21C149.35,212.803 148.717,210.122 148.76,207.41L148.76,206.21C148.695,203.239 149.336,200.295 150.63,197.62C151.778,195.27 153.563,193.288 155.78,191.9C157.996,190.553 160.547,189.86 163.14,189.9C165.788,189.818 168.403,190.514 170.66,191.9C172.699,193.221 174.286,195.133 175.21,197.38C176.256,199.974 176.766,202.753 176.71,205.55L176.71,208.64L176.72,208.63ZM169.53,202.81C169.505,201.011 168.921,199.263 167.86,197.81C166.703,196.416 164.936,195.669 163.13,195.81C161.369,195.748 159.67,196.483 158.51,197.81C157.226,199.411 156.443,201.356 156.26,203.4L169.53,203.4L169.53,202.81Z" style="fill:rgb(236,63,148);fill-rule:nonzero;"/>
    </g>
    <g transform="matrix(1,0,0,1,-40.9884,-125.25)">
        <path d="M206.59,221.67L206.59,222.17L199.16,222.17C198.772,221.206 198.5,220.199 198.35,219.17C197.338,220.25 196.126,221.123 194.78,221.74C193.304,222.419 191.695,222.761 190.07,222.74C188.149,222.772 186.247,222.351 184.52,221.51C182.953,220.755 181.624,219.581 180.68,218.12C179.76,216.668 179.284,214.979 179.31,213.26C179.154,210.209 180.575,207.283 183.07,205.52C185.583,203.72 189.137,202.823 193.73,202.83L198.12,202.83L198.12,200.78C198.137,200.612 198.146,200.443 198.146,200.275C198.146,197.598 195.943,195.395 193.266,195.395C193.07,195.395 192.875,195.406 192.68,195.43C191.704,195.413 190.736,195.604 189.84,195.99C189.082,196.317 188.426,196.842 187.94,197.51C187.496,198.142 187.261,198.898 187.27,199.67L180,199.67C180.01,197.944 180.579,196.267 181.62,194.89C182.818,193.307 184.412,192.065 186.24,191.29C188.402,190.348 190.742,189.884 193.1,189.93C195.296,189.887 197.476,190.306 199.5,191.16C201.285,191.92 202.798,193.204 203.84,194.84C204.928,196.648 205.473,198.731 205.41,200.84L205.41,214.78C205.298,217.135 205.701,219.486 206.59,221.67ZM195.53,215.85C196.611,215.231 197.503,214.328 198.11,213.24L198.11,207.34L194.31,207.34C192.296,207.209 190.289,207.686 188.55,208.71C187.256,209.558 186.496,211.024 186.55,212.57C186.505,213.753 186.976,214.9 187.84,215.71C188.83,216.572 190.12,217.01 191.43,216.93C192.871,216.965 194.293,216.59 195.53,215.85Z" style="fill:rgb(236,63,148);fill-rule:nonzero;"/>
    </g>
    <g transform="matrix(1,0,0,1,-40.9884,-125.25)">
        <path d="M234.52,192.74C236.26,194.6 237.14,197.6 237.14,201.74L237.14,222.15L229.85,222.15L229.85,201.69C229.85,199.59 229.4,198.09 228.49,197.21C227.334,196.235 225.837,195.757 224.33,195.88C223.04,195.861 221.771,196.208 220.67,196.88C219.583,197.563 218.696,198.523 218.1,199.66L218.1,222.18L210.82,222.18L210.82,190.53L217.66,190.53L217.89,194.18C218.975,192.851 220.341,191.778 221.89,191.04C223.505,190.3 225.264,189.928 227.04,189.95C230.287,189.943 232.78,190.873 234.52,192.74Z" style="fill:rgb(236,63,148);fill-rule:nonzero;"/>
    </g>
    <g transform="matrix(0.160226,-0.98708,0.98708,0.160226,0.81164,385.93)">
        <circle cx="321.31" cy="231.02" r="33.22" style="fill:rgb(236,63,148);"/>
    </g>
    <g transform="matrix(1,0,0,1,-40.9884,-125.25)">
        <circle cx="333.54" cy="133.03" r="7.78" style="fill:rgb(236,63,148);"/>
    </g>
    <g transform="matrix(1,0,0,1,-40.9884,-125.25)">
        <circle cx="286.91" cy="266.97" r="7.78" style="fill:rgb(236,63,148);"/>
    </g>
    <g transform="matrix(1,0,0,1,-40.9884,-125.25)">
        <circle cx="296.35" cy="213.97" r="34.59" style="fill:rgb(201,55,148);"/>
    </g>
    <g transform="matrix(0.242599,-0.970127,0.970127,0.242599,19.2916,331.56)">
        <circle cx="322.68" cy="189.8" r="36.32" style="fill:rgb(227,59,149);"/>
    </g>
    <g transform="matrix(1,0,0,1,-40.9884,-125.25)">
        <circle cx="297.43" cy="162.04" r="29.41" style="fill:rgb(236,63,148);"/>
    </g>
    <g transform="matrix(1,0,0,1,-40.9884,-125.25)">
        <path d="M295.74,206L295.74,204L299.55,200.07C299.935,199.66 300.27,199.207 300.55,198.72C300.74,198.418 300.856,198.075 300.89,197.72C300.923,197.337 300.812,196.956 300.58,196.65C300.344,196.411 300.015,196.286 299.68,196.31C299.442,196.302 299.21,196.384 299.03,196.54C298.827,196.703 298.672,196.917 298.58,197.16C298.466,197.432 298.408,197.725 298.41,198.02L295.47,198.02C295.474,197.317 295.664,196.627 296.02,196.02C296.388,195.396 296.916,194.881 297.55,194.53C299.229,193.681 301.247,193.823 302.79,194.9C303.496,195.581 303.863,196.542 303.79,197.52C303.792,198.064 303.679,198.602 303.46,199.1C303.211,199.634 302.895,200.135 302.52,200.59C302.11,201.08 301.52,201.69 300.84,202.41L299.56,203.69L304.06,203.69L304.06,206L295.69,206L295.74,206Z" style="fill:white;fill-rule:nonzero;"/>
    </g>
    <g transform="matrix(1,0,0,1,-40.9884,-125.25)">
        <path d="M314.88,203.57L313.74,203.57L313.74,206L310.8,206L310.8,203.53L306.31,203.53L306.12,201.62L310.8,194.14L310.8,194.09L313.74,194.09L313.74,201.16L314.88,201.16L314.88,203.57ZM310.79,201.2L310.79,198.11L310.61,198.42L308.88,201.19L310.79,201.19L310.79,201.2Z" style="fill:white;fill-rule:nonzero;"/>
    </g>
    <g transform="matrix(1,0,0,1,-40.9884,-125.25)">
        <path d="M320.9,206L317.8,206L322.19,196.46L316.61,196.46L316.61,194.09L325.27,194.09L325.27,195.74L320.9,206Z" style="fill:white;fill-rule:nonzero;"/>
    </g>
    <g transform="matrix(1,0,0,1,-40.9884,-125.25)">
        <path d="M310.38,226.94C310.373,226.94 310.365,226.94 310.358,226.94C295.579,226.94 283.418,214.779 283.418,200C283.418,185.221 295.579,173.06 310.358,173.06C316.837,173.06 323.104,175.397 328,179.64L324.83,183.3C320.815,179.826 315.679,177.913 310.37,177.913C298.246,177.913 288.27,187.889 288.27,200.013C288.27,212.137 298.246,222.113 310.37,222.113C322.494,222.113 332.47,212.137 332.47,200.013C332.47,200.009 332.47,200.004 332.47,200C332.48,196.46 331.633,192.971 330,189.83L334.3,187.6C336.282,191.429 337.317,195.678 337.317,199.99C337.317,214.766 325.166,226.927 310.39,226.94L310.38,226.94Z" style="fill:white;fill-rule:nonzero;"/>
    </g>
    <g transform="matrix(1,0,0,1,-40.9884,-125.25)">
        <path d="M314.79,187.03L313.66,182.32L324.55,179.73L321.96,168.84L326.67,167.72L330.38,183.31L314.79,187.03Z" style="fill:white;fill-rule:nonzero;"/>
    </g>
</svg>
