<?xml version="1.0" encoding="UTF-8" standalone="no"?>
<!DOCTYPE svg PUBLIC "-//W3C//DTD SVG 1.1//EN" "http://www.w3.org/Graphics/SVG/1.1/DTD/svg11.dtd">
<svg width="100%" height="100%" viewBox="0 0 151 151" version="1.1" xmlns="http://www.w3.org/2000/svg" xmlns:xlink="http://www.w3.org/1999/xlink" xml:space="preserve" xmlns:serif="http://www.serif.com/" style="fill-rule:evenodd;clip-rule:evenodd;stroke-linejoin:round;stroke-miterlimit:1.41421;">
    <g transform="matrix(1,0,0,1,-124.6,-124.6)">
        <path d="M215.24,242.63C189.39,242.63 155.92,173.47 179.71,161.06L187.2,157.37L199.61,181.59L192.21,185.23C184.87,189.16 198.84,217.51 207.14,217.51C207.639,217.515 208.133,217.402 208.58,217.18C208.9,217.04 215.88,213.61 215.91,213.59L228.42,237.73C228.42,237.73 221.36,241.21 220.92,241.4C219.139,242.219 217.2,242.639 215.24,242.63M200,124.6C158.637,124.6 124.6,158.637 124.6,200C124.6,241.363 158.637,275.4 200,275.4C241.363,275.4 275.4,241.363 275.4,200C275.4,158.637 241.363,124.6 200,124.6" style="fill:rgb(244,145,183);fill-rule:nonzero;"/>
    </g>
</svg>
