<?xml version="1.0" encoding="UTF-8" standalone="no"?>
<!DOCTYPE svg PUBLIC "-//W3C//DTD SVG 1.1//EN" "http://www.w3.org/Graphics/SVG/1.1/DTD/svg11.dtd">
<svg width="100%" height="100%" viewBox="0 0 151 151" version="1.1" xmlns="http://www.w3.org/2000/svg" xmlns:xlink="http://www.w3.org/1999/xlink" xml:space="preserve" xmlns:serif="http://www.serif.com/" style="fill-rule:evenodd;clip-rule:evenodd;stroke-linejoin:round;stroke-miterlimit:1.41421;">
    <g transform="matrix(1,0,0,1,-124.6,-124.55)">
        <path d="M202.48,189.55C202.168,188.209 202.011,186.836 202.011,185.459C202.011,175.552 210.163,167.399 220.071,167.399C225.052,167.399 229.818,169.46 233.23,173.09C237.272,172.296 241.149,170.815 244.69,168.71C243.35,172.895 240.529,176.451 236.76,178.71C240.336,178.287 243.828,177.329 247.12,175.87C244.71,179.505 241.66,182.673 238.12,185.22C239.27,210.61 220.34,238.91 186.83,238.91C177.024,238.919 167.419,236.103 159.17,230.8C160.601,230.968 162.04,231.051 163.48,231.05C171.601,231.059 179.493,228.335 185.88,223.32C178.168,223.177 171.358,218.114 169,210.77C171.708,211.284 174.498,211.178 177.16,210.46C168.689,208.747 162.576,201.182 162.68,192.54C165.185,193.929 167.987,194.701 170.85,194.79C162.97,189.515 160.51,178.891 165.27,170.69C174.429,181.963 187.964,188.824 202.47,189.55M199.99,124.55C158.631,124.555 124.6,158.591 124.6,199.95C124.6,241.313 158.637,275.35 200,275.35C241.344,275.35 275.373,241.344 275.4,200C275.4,158.637 241.363,124.6 200,124.6" style="fill:rgb(244,145,183);fill-rule:nonzero;"/>
    </g>
</svg>
